<?xml version="1.0" encoding="UTF-8"?>
<!DOCTYPE svg PUBLIC "-//W3C//DTD SVG 1.1//EN" "http://www.w3.org/Graphics/SVG/1.1/DTD/svg11.dtd">
<!-- Creator: CorelDRAW 2021.5 -->
<svg xmlns="http://www.w3.org/2000/svg" xml:space="preserve" width="46.487mm" height="38.5478mm" version="1.1" style="shape-rendering:geometricPrecision; text-rendering:geometricPrecision; image-rendering:optimizeQuality; fill-rule:evenodd; clip-rule:evenodd"
viewBox="0 0 4648.7 3854.78"
 xmlns:xlink="http://www.w3.org/1999/xlink"
 xmlns:xodm="http://www.corel.com/coreldraw/odm/2003">
 <defs>
  <style type="text/css">
   <![CDATA[
    .str0 {stroke:black;stroke-width:7.62;stroke-miterlimit:22.9256}
    .fil12 {fill:none}
    .fil1 {fill:#00985F}
    .fil2 {fill:#0197BC}
    .fil3 {fill:#2671B2}
    .fil4 {fill:#535BA4}
    .fil11 {fill:#7B4799}
    .fil0 {fill:#8CBD40}
    .fil10 {fill:#CE1388}
    .fil9 {fill:#EF3230}
    .fil8 {fill:#F36D30}
    .fil7 {fill:#F79B2C}
    .fil5 {fill:#FDEE1F}
    .fil6 {fill:#FFD312}
    .fil13 {fill:white}
    .fil14 {fill:white;fill-rule:nonzero}
   ]]>
  </style>
    <clipPath id="id0">
     <path d="M673.6 1624.43l3140.57 0 0 645.87 -3140.57 0 0 -645.87z"/>
    </clipPath>
    <clipPath id="id1">
     <path d="M673.6 1624.43l3140.57 0 0 645.87 -3140.57 0 0 -645.87z"/>
    </clipPath>
 </defs>
 <g id="Capa_x0020_1">
  <metadata id="CorelCorpID_0Corel-Layer"/>
  <g id="acrilex-seeklogo.com.cdr">
   <g>
    <polygon class="fil0" points="3885.54,1248.4 4539.94,1735.98 3854.22,2651.3 3199.82,2163.73 "/>
    <polygon class="fil1" points="3459.25,1208.16 4173.51,1602.87 3617.71,2602.43 2903.45,2207.71 "/>
    <polygon class="fil2" points="2939.28,1303.66 3755.25,1290.94 3770.07,2434.52 2954.12,2447.24 "/>
    <polygon class="fil3" points="2731.03,1239.07 3525.05,1403.17 3292.15,2515.36 2498.13,2351.25 "/>
    <polygon class="fil4" points="2212.51,1429.61 2993.33,1237.92 3259.11,2332.9 2478.3,2524.61 "/>
    <polygon class="fil5" points="108.74,1476.57 895.67,1272.92 1201.42,2345.04 414.47,2548.67 "/>
    <polygon class="fil6" points="536.9,1266.51 1337.44,1407.44 1171.21,2509.83 370.67,2368.9 "/>
    <polygon class="fil7" points="591.07,1385.78 1383.22,1203.46 1659.91,2283.45 867.76,2465.75 "/>
    <polygon class="fil8" points="1097.45,1250.17 1880.72,1467.53 1609.11,2548.78 825.86,2331.44 "/>
    <polygon class="fil9" points="1327.78,1324.95 2128.87,1256.35 2222.06,2379.28 1420.99,2447.88 "/>
    <polygon class="fil10" points="1938.72,1236.13 2627.62,1650.67 2044.1,2614.6 1355.21,2200.06 "/>
    <polygon class="fil11" points="2089.27,1279.02 2880.43,1422.15 2676.94,2530.4 1885.76,2387.27 "/>
   </g>
   <g>
   </g>
   <g style="clip-path:url(#id0)">
    <g>
    </g>
   </g>
   <polygon class="fil12" points="673.6,1624.43 3814.17,1624.43 3814.17,2270.3 673.6,2270.3 "/>
   <g style="clip-path:url(#id1)">
    <path id="_1" class="fil12 str0" d="M673.6 1624.43l3140.57 645.87m0 -645.87l-3140.57 645.87"/>
   </g>
   <g>
    <path class="fil13" d="M1772.34 1658.17l-0.02 569.22 170.81 0 0.04 -194.73c9.25,10.17 21.25,31.85 30.54,46.4l60.79 97.7c8.98,14.63 23.51,35.61 30.31,50.2l185.2 0.45 -80.89 -149.81c-6.59,-11.26 -23.59,-40.07 -26.67,-51.78 38.41,-30.62 81.11,-96.14 81.13,-172.93 -0.02,-116.71 -101.33,-221.66 -215.55,-221.66l-235.77 0.02 0.08 26.92zm168.57 279.53c65.62,7 113.77,-25.63 113.4,-87.79 -0.2,-32.02 -14.41,-50.64 -33.93,-63.2 -17.08,-11.01 -54.95,-22.15 -79.53,-13.37l0.06 164.36z"/>
    <path class="fil13" d="M666.56 2227.45l167.73 -0.18 21.12 -57.5 196.36 -0.39 24.58 57.64 165.22 0.39 -234.05 -595.17 -103.41 -1.07c-7.35,2.01 -55.42,130.37 -60.99,145.41l-176.56 450.87zm230.57 -169.76l110.41 0.51c-0.78,-10.05 -48.7,-129.18 -55.07,-138.92 -18.68,42.46 -39.68,95.25 -55.34,138.41z"/>
    <path class="fil13" d="M3285.78 2226.3l174.33 0.02c17.75,-28.38 57.01,-109.98 71.62,-129.93 16.23,25.52 48.66,94.01 70.24,129.83l174.37 0.1c-6.68,-22.85 -154.5,-284.43 -155.36,-296.23 -0.79,-10.89 151.62,-278.91 155.38,-297.89l-174.09 0.08c-23.92,39.85 -48.78,88.86 -70.17,130.39 -12,-14.22 -25.44,-44.61 -36.42,-64.36 -12.55,-22.53 -22.83,-45.42 -35.63,-65.81l-174.1 -0.24c2.77,17.61 154.22,284.66 155.34,296.23l-116.5 222.13c-9.79,17.28 -34.1,59.18 -39.01,75.68z"/>
    <path class="fil13" d="M1712.33 2171.02c-2.56,-5.53 -73.03,-117.65 -86.2,-130.33 -26.45,14.2 -39.99,26.08 -77.48,31.08 -90.03,12.04 -180.47,-55.12 -176.48,-150.06 2.65,-63.19 46.63,-107.52 91.55,-126.98 41.34,-17.92 90.15,-16.81 132.14,1.72 15.22,6.72 24.45,17.08 36.23,20.76 8.01,-8.75 14.59,-21.1 20.71,-30.46 14.74,-22.56 56,-80.7 63.01,-98.62 -194.57,-160.64 -494.85,-19.72 -497.38,233.56 -2.36,233.72 231.05,371.4 424.32,289.43 29.49,-12.5 47.33,-25.55 69.58,-40.1z"/>
    <polygon class="fil13" points="2897.14,1634.19 2897.14,2227.39 3227.25,2227.33 3227.23,2091.14 3064.83,2090.63 3064.97,1983.4 3226.21,1982.97 3226.91,1854.53 3066,1853.34 3064.87,1757.66 3227.21,1756.88 3227.28,1632.09 "/>
    <polygon class="fil13" points="2565.97,2227.39 2842.35,2227.33 2842.29,2091.16 2732.84,2090.61 2733.04,1631.25 2566.05,1631.21 "/>
    <polygon class="fil13" points="2315.34,2227.37 2318.32,2227.39 2493.3,2227.29 2493.28,1635.69 2316.43,1635.24 "/>
   </g>
   <g>
    <path class="fil14" d="M3875.72 1661.38l25.64 0c8.22,0 15.68,2.26 15.68,13.62 0,9.35 -5.44,14.22 -15.43,14.22l-25.89 0 0 -27.84zm-15.79 76.4l15.79 0 0 -36.7 23.24 0c14.53,0 17.94,7.24 17.94,23.59 0,4.38 0,9.25 2.4,13.11l16.94 0c-3.42,-3.63 -4.92,-13.11 -4.92,-23.46 0,-14.12 -7.97,-18.11 -13.41,-18.85l0 -0.25c2.91,-1 14.91,-5.38 14.91,-22.48 0,-15.1 -10.09,-24.08 -29.81,-24.08l-43.08 0 0 89.12z"/>
    <path class="fil14" d="M3898.08 1611.42c22.58,0 43.03,9.15 57.84,23.96 14.8,14.8 23.97,35.25 23.97,57.83 0,22.59 -9.17,43.05 -23.97,57.85 -14.81,14.8 -35.26,23.96 -57.84,23.96 -22.59,0 -43.04,-9.16 -57.85,-23.96 -14.8,-14.8 -23.95,-35.26 -23.95,-57.85 0,-22.58 9.15,-43.03 23.95,-57.83 14.81,-14.81 35.26,-23.96 57.85,-23.96zm48.78 33.02c-12.49,-12.49 -29.73,-20.2 -48.78,-20.2 -19.05,0 -36.3,7.71 -48.79,20.2 -12.48,12.48 -20.2,29.72 -20.2,48.77 0,19.07 7.72,36.31 20.2,48.79 12.49,12.49 29.74,20.2 48.79,20.2 19.05,0 36.29,-7.71 48.78,-20.2 12.48,-12.48 20.22,-29.72 20.22,-48.79 0,-19.05 -7.74,-36.29 -20.22,-48.77z"/>
   </g>
  </g>
 </g>
</svg>
