<?xml version="1.0" encoding="UTF-8"?>
<!DOCTYPE svg PUBLIC "-//W3C//DTD SVG 1.1//EN" "http://www.w3.org/Graphics/SVG/1.1/DTD/svg11.dtd">
<!-- Creator: CorelDRAW -->
<svg xmlns="http://www.w3.org/2000/svg" xml:space="preserve" width="25.3998mm" height="25.3998mm" version="1.1" style="shape-rendering:geometricPrecision; text-rendering:geometricPrecision; image-rendering:optimizeQuality; fill-rule:evenodd; clip-rule:evenodd"
viewBox="0 0 2539.98 2539.98"
 xmlns:xlink="http://www.w3.org/1999/xlink"
 xmlns:xodm="http://www.corel.com/coreldraw/odm/2003">
 <defs>
  <style type="text/css">
   <![CDATA[
    .fil0 {fill:none}
    .fil2 {fill:#00985F}
    .fil3 {fill:#0197BC}
    .fil4 {fill:#2671B2}
    .fil5 {fill:#535BA4}
    .fil12 {fill:#7B4799}
    .fil1 {fill:#8CBD40}
    .fil11 {fill:#CE1388}
    .fil10 {fill:#EF3230}
    .fil9 {fill:#F36D30}
    .fil8 {fill:#F79B2C}
    .fil6 {fill:#FDEE1F}
    .fil7 {fill:#FFD312}
    .fil13 {fill:white}
    .fil14 {fill:white;fill-rule:nonzero}
   ]]>
  </style>
    <clipPath id="id0">
     <path d="M422.51 1114.45l1612.33 0 0 331.58 -1612.33 0 0 -331.58z"/>
    </clipPath>
 </defs>
 <g id="__x0023_Layer_x0020_1">
  <metadata id="CorelCorpID_0Corel-Layer"/>
  <rect class="fil0" x="-0.02" y="-0.01" width="2539.99" height="2539.99"/>
  <g id="acrilex-seeklogo.com.cdr">
   <g>
    <polygon class="fil1" points="2071.48,921.4 2407.44,1171.72 2055.4,1641.63 1719.44,1391.32 "/>
    <polygon class="fil2" points="1852.63,900.74 2219.32,1103.38 1933.98,1616.54 1567.29,1413.9 "/>
    <polygon class="fil3" points="1585.68,949.77 2004.59,943.24 2012.2,1530.34 1593.3,1536.87 "/>
    <polygon class="fil4" points="1478.77,916.61 1886.41,1000.86 1766.84,1571.84 1359.2,1487.59 "/>
    <polygon class="fil5" points="1212.57,1014.43 1613.43,916.02 1749.88,1478.17 1349.02,1576.59 "/>
    <polygon class="fil6" points="132.52,1038.54 536.52,933.99 693.49,1484.4 289.48,1588.94 "/>
    <polygon class="fil7" points="352.33,930.7 763.32,1003.05 677.98,1569 266.99,1496.65 "/>
    <polygon class="fil8" points="380.14,991.93 786.82,898.33 928.87,1452.78 522.19,1546.37 "/>
    <polygon class="fil9" points="640.11,922.31 1042.23,1033.9 902.79,1589 500.68,1477.42 "/>
    <polygon class="fil10" points="758.36,960.7 1169.63,925.48 1217.47,1501.98 806.21,1537.2 "/>
    <polygon class="fil11" points="1072.01,915.1 1425.68,1127.92 1126.11,1622.79 772.44,1409.97 "/>
    <polygon class="fil12" points="1149.3,937.12 1555.47,1010.6 1451,1579.56 1044.82,1506.08 "/>
   </g>
   <g style="clip-path:url(#id0)">
    <image x="422.51" y="1114.45" width="1612.33" height="331.58" xlink:href="ACRILEX_Images/ACRILEX_ImgID1.png"/>
   </g>
   <g>
    <path class="fil13" d="M986.59 1131.77l-0.01 292.23 87.69 0 0.02 -99.97c4.75,5.22 10.91,16.35 15.68,23.82l31.21 50.16c4.61,7.51 12.07,18.28 15.56,25.77l95.08 0.23 -41.53 -76.91c-3.38,-5.78 -12.11,-20.57 -13.69,-26.58 19.72,-15.72 41.64,-49.36 41.65,-88.78 -0.01,-59.92 -52.02,-113.8 -110.66,-113.8l-121.04 0.01 0.04 13.82zm86.54 143.51c33.69,3.59 58.41,-13.16 58.22,-45.07 -0.1,-16.44 -7.4,-26 -17.42,-32.45 -8.77,-5.65 -28.21,-11.37 -40.83,-6.86l0.03 84.38z"/>
    <path class="fil13" d="M418.9 1424.03l86.11 -0.09 10.84 -29.52 100.81 -0.2 12.62 29.59 84.82 0.2 -120.16 -305.55 -53.09 -0.55c-3.77,1.03 -28.45,66.93 -31.31,74.65l-90.64 231.47zm118.37 -87.15l56.68 0.26c-0.4,-5.16 -25,-66.32 -28.27,-71.32 -9.59,21.8 -20.37,48.9 -28.41,71.06z"/>
    <path class="fil13" d="M1763.57 1423.44l89.5 0.01c9.11,-14.57 29.27,-56.46 36.77,-66.7 8.33,13.1 24.98,48.26 36.06,66.65l89.52 0.05c-3.43,-11.73 -79.32,-146.02 -79.76,-152.08 -0.41,-5.59 77.84,-143.19 79.77,-152.93l-89.38 0.04c-12.28,20.46 -25.04,45.62 -36.02,66.94 -6.16,-7.3 -13.06,-22.9 -18.7,-33.04 -6.44,-11.57 -11.72,-23.32 -18.29,-33.79l-89.38 -0.12c1.42,9.04 79.17,146.14 79.75,152.08l-59.81 114.04c-5.03,8.87 -17.51,30.38 -20.03,38.85z"/>
    <path class="fil13" d="M955.78 1395.06c-1.31,-2.84 -37.49,-60.4 -44.25,-66.91 -13.58,7.29 -20.53,13.39 -39.78,15.96 -46.22,6.18 -92.65,-28.3 -90.6,-77.04 1.36,-32.44 23.94,-55.2 47,-65.19 21.22,-9.2 46.28,-8.63 67.84,0.88 7.81,3.45 12.55,8.77 18.6,10.66 4.11,-4.49 7.49,-10.83 10.63,-15.64 7.57,-11.58 28.75,-41.43 32.35,-50.63 -99.89,-82.47 -254.05,-10.12 -255.35,119.91 -1.21,119.99 118.62,190.67 217.84,148.59 15.14,-6.42 24.3,-13.12 35.72,-20.59z"/>
    <polygon class="fil13" points="1564.05,1119.46 1564.05,1424 1733.52,1423.97 1733.51,1354.05 1650.14,1353.79 1650.21,1298.74 1732.99,1298.52 1733.35,1232.58 1650.74,1231.97 1650.16,1182.85 1733.5,1182.45 1733.54,1118.38 "/>
    <polygon class="fil13" points="1394.03,1424 1535.92,1423.97 1535.89,1354.06 1479.7,1353.78 1479.8,1117.95 1394.07,1117.93 "/>
    <polygon class="fil13" points="1265.36,1423.99 1266.89,1424 1356.72,1423.95 1356.71,1120.23 1265.92,1120 "/>
   </g>
   <g>
    <path class="fil14" d="M2066.44 1133.42l13.16 0c4.22,0 8.05,1.16 8.05,6.99 0,4.8 -2.79,7.3 -7.92,7.3l-13.29 0 0 -14.29zm-8.11 39.22l8.11 0 0 -18.84 11.93 0c7.46,0 9.21,3.72 9.21,12.11 0,2.25 0,4.75 1.23,6.73l8.7 0c-1.76,-1.86 -2.53,-6.73 -2.53,-12.04 0,-7.25 -4.09,-9.3 -6.88,-9.68l0 -0.13c1.49,-0.51 7.65,-2.76 7.65,-11.54 0,-7.75 -5.18,-12.36 -15.3,-12.36l-22.12 0 0 45.75z"/>
    <path class="fil14" d="M2077.92 1107.77c11.59,0 22.09,4.7 29.69,12.3 7.6,7.6 12.31,18.1 12.31,29.69 0,11.6 -4.71,22.1 -12.31,29.7 -7.6,7.6 -18.1,12.3 -29.69,12.3 -11.6,0 -22.1,-4.7 -29.7,-12.3 -7.6,-7.6 -12.3,-18.1 -12.3,-29.7 0,-11.59 4.7,-22.09 12.3,-29.69 7.6,-7.6 18.1,-12.3 29.7,-12.3zm25.04 16.95c-6.41,-6.41 -15.26,-10.37 -25.04,-10.37 -9.78,0 -18.64,3.96 -25.05,10.37 -6.41,6.41 -10.37,15.26 -10.37,25.04 0,9.79 3.96,18.64 10.37,25.05 6.41,6.41 15.27,10.37 25.05,10.37 9.78,0 18.63,-3.96 25.04,-10.37 6.41,-6.41 10.38,-15.26 10.38,-25.05 0,-9.78 -3.97,-18.63 -10.38,-25.04z"/>
   </g>
  </g>
 </g>
</svg>
