<?xml version="1.0" encoding="UTF-8"?>
<!DOCTYPE svg PUBLIC "-//W3C//DTD SVG 1.1//EN" "http://www.w3.org/Graphics/SVG/1.1/DTD/svg11.dtd">
<!-- Creator: CorelDRAW 2021.5 -->
<svg xmlns="http://www.w3.org/2000/svg" xml:space="preserve" width="19.4732mm" height="19.4732mm" version="1.1" style="shape-rendering:geometricPrecision; text-rendering:geometricPrecision; image-rendering:optimizeQuality; fill-rule:evenodd; clip-rule:evenodd"
viewBox="0 0 1947.32 1947.32"
 xmlns:xlink="http://www.w3.org/1999/xlink"
 xmlns:xodm="http://www.corel.com/coreldraw/odm/2003">
 <defs>
  <style type="text/css">
   <![CDATA[
    .fil0 {fill:none}
    .fil1 {fill:#ED3237}
   ]]>
  </style>
 </defs>
 <g id="Capa_x0020_1">
  <metadata id="CorelCorpID_0Corel-Layer"/>
  <rect class="fil0" x="-0.02" y="-0" width="1947.33" height="1947.33"/>
  <g id="_803271456">
   <g>
    <g>
     <path class="fil1" d="M1172.66 1327.66l-400 0c-328,0 -595,268 -595,596l1592 0c-1,-327 -269,-596 -597,-596z"/>
     <path class="fil1" d="M1043.66 1055.66c32,0 61,10 84,29l144 0c71,-75 114,-174 114,-285 0,-229 -185,-413 -413,-413 -227,0 -413,184 -413,413 0,155 85,290 212,362 14,-61 67,-106 130,-106l142 0z"/>
     <path class="fil1" d="M361.66 834.66c5,43 26,83 55,113 23,23 52,40 85,50 -1,-7 -1,-14 -1,-19l0 -337c0,-7 0,-14 1,-21 -33,9 -60,26 -85,51 -1,2 -5,5 -7,7l0 -14c0,-33 4,-66 9,-97 5,-33 14,-65 26,-94 11,-31 24,-61 42,-89 15,-28 35,-55 55,-80 2,-1 4,-5 4,-7 16,2 31,-3 42,-13 106,-106 244,-159 382,-159 137,0 278,53 382,159 12,12 28,15 41,13 2,2 2,6 4,7 21,25 40,52 55,80 16,28 30,58 42,89 11,31 19,62 26,95 5,32 9,65 9,98l0 13c-2,-3 -5,-5 -7,-6 -23,-23 -52,-40 -85,-51 2,7 2,14 2,21l0 335c0,7 0,14 -2,19 9,-1 17,-5 26,-8l0 109c0,12 -2,24 -4,33 -1,9 -5,14 -8,19 -4,4 -9,7 -14,9 -7,2 -14,3 -23,3l-1 0 -320 0c-10,-17 -28,-29 -50,-29l-143 0c-31,0 -55,26 -55,55 1,32 26,56 57,56l142 0c21,0 40,-12 51,-30l323 0 12 0c12,0 22,-3 33,-7 14,-5 24,-12 35,-22 8,-11 15,-23 20,-38 4,-14 7,-32 7,-51l0 -139 0 -5c2,-2 4,-3 6,-5 29,-30 50,-70 55,-113 2,-2 4,-2 4,-3 5,-6 8,-14 8,-21l0 -144c0,-37 -3,-73 -8,-108 -11,-37 -19,-71 -32,-106 -12,-35 -27,-68 -46,-99 -18,-31 -39,-61 -63,-89 -2,-3 -5,-5 -9,-7 4,-15 -1,-34 -14,-46 -125,-125 -288,-188 -453,-188 -165,0 -328,63 -455,188 -12,12 -17,31 -14,46 -3,2 -5,4 -8,7 -25,28 -46,58 -63,89 -17,31 -33,64 -47,99 -12,35 -22,69 -28,106 -7,35 -8,71 -8,108l0 144c0,8 3,15 8,21 2,1 4,1 4,3z"/>
    </g>
   </g>
  </g>
  <g id="_803264800">
  </g>
  <g id="_803273184">
  </g>
  <g id="_803271424">
  </g>
  <g id="_803265088">
  </g>
  <g id="_803271264">
  </g>
  <g id="_803263584">
  </g>
  <g id="_803263840">
  </g>
  <g id="_803269888">
  </g>
  <g id="_803271488">
  </g>
  <g id="_803264992">
  </g>
  <g id="_803270752">
  </g>
  <g id="_803269216">
  </g>
  <g id="_803271616">
  </g>
  <g id="_803265248">
  </g>
  <g id="_803276512">
  </g>
 </g>
</svg>
