<?xml version="1.0" encoding="UTF-8"?>
<!DOCTYPE svg PUBLIC "-//W3C//DTD SVG 1.1//EN" "http://www.w3.org/Graphics/SVG/1.1/DTD/svg11.dtd">
<!-- Creator: CorelDRAW 2021.5 -->
<svg xmlns="http://www.w3.org/2000/svg" xml:space="preserve" width="46.487mm" height="38.5478mm" version="1.1" style="shape-rendering:geometricPrecision; text-rendering:geometricPrecision; image-rendering:optimizeQuality; fill-rule:evenodd; clip-rule:evenodd"
viewBox="0 0 4648.7 3854.78"
 xmlns:xlink="http://www.w3.org/1999/xlink"
 xmlns:xodm="http://www.corel.com/coreldraw/odm/2003">
 <defs>
  <style type="text/css">
   <![CDATA[
    .fil3 {fill:#005199}
    .fil4 {fill:#00A231}
    .fil0 {fill:#00A7E5}
    .fil6 {fill:#CBCBCF}
    .fil2 {fill:#E41000}
    .fil1 {fill:#F8DB00}
    .fil5 {fill:white}
   ]]>
  </style>
 </defs>
 <g id="Capa_x0020_1">
  <metadata id="CorelCorpID_0Corel-Layer"/>
  <g id="_105553384922496">
   <path class="fil0" d="M2703.91 1472.02c-98.32,19.99 -191.9,55.65 -255.13,171.59 -22.04,40.39 -29.85,417.8 -31.12,493.6 -1.82,108.88 -15.3,127.04 21.24,219.24 73.07,184.34 238.74,258.74 391.74,210.15 474.42,-150.61 333.75,-1188.16 -126.73,-1094.58z"/>
   <path class="fil1" d="M1541.82 2598.32l123.38 -7.23 3.18 -221.31c95.11,97.75 240.72,324.83 328.5,410.95 24.8,-37.65 103.38,-241.7 124.54,-297.88 -43.63,-44.06 -165.7,-118.15 -197.25,-163.34 52.57,-55.23 115.12,-124.44 124.51,-231.71 21.56,-246.87 -141.64,-379.92 -296.03,-401.1 -54.2,-7.42 -234.52,-22.35 -280.03,-7.37 -5.16,79.81 -4.46,164.8 -10.99,243.42 -11.03,132.31 26.11,325.52 47.39,455.4 10.93,66.66 19.69,155.66 32.8,220.17z"/>
   <path class="fil2" d="M3695.31 2204.24c-21.79,47.01 -62.25,112.49 -78.99,156.9l112.87 39.84c17.78,-27.25 57.39,-155.5 69.91,-196.69l199.2 46.1c0.53,40.44 7.34,100.48 11.29,138.74 5.9,57.23 -8.78,36.55 76.59,51.76 53.13,9.47 154.35,29.57 198.86,28.27l-95.7 -947.01c-69.04,-1.98 -257.46,-93.77 -342.57,-106.96 -33.41,55.26 -55.75,122.5 -83.65,187.1l-124.99 287.86c-55.92,119.25 -6.09,70.09 57.18,314.09z"/>
   <path class="fil3" d="M873.95 2334.12c-30.44,49.46 -72.43,80.77 -102.96,129.49l100.16 76.05 92.57 -161.24 251.61 54.11c13.72,10.63 33.56,133.99 37.66,155.99l222.72 -1.05c-3.45,-68.65 -18.09,-149.86 -27.07,-225.75 -20.64,-174.27 -75.04,-581.44 -82.61,-706.76l-281.93 -51.76 -256 530.01c-19.7,47.98 -3.18,62.41 12.31,105.15 11.8,32.63 21.26,73.42 33.54,95.76z"/>
   <path class="fil2" d="M818.52 2338.73c-21.41,-58 -56.06,-145.92 -81.81,-197.68 -215.69,282.73 -362.51,-196.55 -151.94,-259.07 88.31,-26.22 105.58,61.86 141.56,101.94 30.53,-31.52 60,-73.7 92.86,-114.56 22.24,-27.63 72.97,-87.17 89.2,-116.68 -176.78,-446.81 -591.66,-332.86 -676.81,123.61 -46.84,251.15 53.55,474.53 163.56,561.15 60.41,47.59 150.96,86.71 237.03,52.45 64.95,-25.87 152.85,-85.55 186.35,-151.16z"/>
   <path class="fil3" d="M3034.51 1567.51c50.32,49.93 98.8,186.22 122.18,288.41 49.63,216.84 -22.45,315.77 21.56,401.73 80.2,156.55 360.31,207.37 446.98,-34.2 -22.66,-69.12 -62.75,-171.54 -77.46,-232.49 -1.69,1.52 -3.99,1.33 -4.79,5.17l-12.8 15.15c-37.46,48.14 -74.93,79.5 -131.45,58.44 -130,-48.42 -126.05,-283.39 -16.79,-350.94 80.41,-49.71 119.48,14.71 165.45,45.27l155.88 -239.99c-56.04,-166.18 -314.13,-359.72 -537.37,-150.86 -45,42.12 -114.8,119.55 -131.39,194.31z"/>
   <path class="fil4" d="M2087.91 2378.37c34.23,7.98 81.35,41.32 115.91,57.58 -18.42,50.71 -47.55,99.21 -56.22,153.57l187.27 -20.82 56.93 -915.45 -248.17 72.65c-47.5,12.92 -42.6,6.71 -42.54,83.87 0.13,188.54 -11.88,378.93 -13.18,568.6z"/>
   <path class="fil4" d="M2161.18 1085.89c-227.32,92.09 -142.03,601.2 97.4,511.38 225.3,-84.5 141.15,-608 -97.4,-511.38z"/>
   <path class="fil5" d="M2697.74 1887.14c-32.66,10.91 -24.74,-0.44 -56.04,28.38 -144.12,132.59 -52.06,456.86 119.37,404.79 206.16,-62.6 142.09,-501.82 -63.33,-433.17z"/>
   <path class="fil6" d="M4307.6 1531.76c-22.09,11.65 -3.16,-5.16 -21.47,16.07 -27.4,31.8 -30.32,100.04 -23.11,148.67 11.94,80.55 83.46,86.96 117.33,70.51 65.64,-31.94 73.96,-246.07 -32.83,-246.07l-39.92 10.82z"/>
   <path class="fil5" d="M1667.28 2021.38l-5.31 233.37c28.05,11.76 151.51,-9.74 151.77,-117.7 0.21,-82.18 -52.18,-109.4 -98.09,-117.98l-48.37 2.31z"/>
   <polygon class="fil5" points="3846.8,2060.06 3985.76,2091.97 3964.5,1782.11 "/>
   <path class="fil5" d="M1048.9 2190.71l150.88 30.26 -54.19 -258.11c-12.86,18.88 -106.81,195.64 -96.69,227.85z"/>
  </g>
 </g>
</svg>
