<?xml version="1.0" encoding="UTF-8"?>
<!DOCTYPE svg PUBLIC "-//W3C//DTD SVG 1.1//EN" "http://www.w3.org/Graphics/SVG/1.1/DTD/svg11.dtd">
<!-- Creator: CorelDRAW 2021.5 -->
<svg xmlns="http://www.w3.org/2000/svg" xml:space="preserve" width="19.4732mm" height="19.4732mm" version="1.1" style="shape-rendering:geometricPrecision; text-rendering:geometricPrecision; image-rendering:optimizeQuality; fill-rule:evenodd; clip-rule:evenodd"
viewBox="0 0 1947.32 1947.32"
 xmlns:xlink="http://www.w3.org/1999/xlink"
 xmlns:xodm="http://www.corel.com/coreldraw/odm/2003">
 <defs>
  <style type="text/css">
   <![CDATA[
    .fil1 {fill:none}
    .fil0 {fill:#ED3237}
   ]]>
  </style>
 </defs>
 <g id="Capa_x0020_1">
  <metadata id="CorelCorpID_0Corel-Layer"/>
  <g id="_598645792">
   <g>
    <path class="fil0" d="M727.66 1250.55c-88,0 -159,91.44 -159,204.77 0,113.33 71,204.77 159,204.77 88,0 159,-91.44 159,-204.77 0,-113.33 -71,-204.77 -159,-204.77zm0 306.51c-44,0 -79,-45.07 -79,-101.74 0,-56.67 35,-101.74 79,-101.74 44,0 79,45.07 79,101.74 0,56.67 -35,101.74 -79,101.74zm1196 -457.19l0 217.65c0,55.38 -34,99.16 -76,99.16l-82 0c-15,-131.36 -103,-231.81 -208,-231.81 -105,0 -193,100.45 -208,231.81l-414 0c-15,-131.36 -103,-231.81 -208,-231.81 -105,0 -193,100.45 -207,231.81l-103 0c-42,0 -76,-43.78 -76,-99.16l0 -217.65 1582 0 0 0zm-366 150.68c-88,0 -159,91.44 -159,204.77 0,113.33 71,204.77 159,204.77 88,0 159,-91.44 159,-204.77 0,-113.33 -71,-204.77 -159,-204.77zm0 306.51c-44,0 -79,-45.07 -79,-101.74 0,-56.67 35,-101.74 79,-101.74 44,0 79,45.07 79,101.74 0,56.67 -35,101.74 -79,101.74zm336 -677.41l-301 -382.5c-19,-24.47 -45,-37.35 -71,-37.35l-152 0 0 -73.4c0,-55.38 -34,-99.17 -77,-99.17l-875 0c-42,0 -76,43.79 -76,99.17l0 15.45 -311 46.36 550 91.44 -557 70.83 555 101.74 -555 63.11 318 75.98 0 194.47 1582 0 0 -72.12c0,-34.77 -11,-68.26 -30,-94.01zm-131 12.87l-291 0c-7,0 -12,-6.43 -12,-15.45l0 -288.48c0,-9.02 5,-15.45 12,-15.45l55 0c3,0 6,1.28 9,3.86l235 289.77c8,9.01 3,25.75 -8,25.75z"/>
   </g>
  </g>
  <g id="_598678080">
  </g>
  <g id="_598635296">
  </g>
  <g id="_598633952">
  </g>
  <g id="_598630112">
  </g>
  <g id="_598654592">
  </g>
  <g id="_598657984">
  </g>
  <g id="_598656704">
  </g>
  <g id="_598651872">
  </g>
  <g id="_598636768">
  </g>
  <g id="_598660608">
  </g>
  <g id="_598637888">
  </g>
  <g id="_598661280">
  </g>
  <g id="_598631200">
  </g>
  <g id="_598634880">
  </g>
  <g id="_598630304">
  </g>
  <rect class="fil1" x="-0.02" y="-0" width="1947.33" height="1947.33"/>
 </g>
</svg>
