<?xml version="1.0" encoding="UTF-8"?>
<!DOCTYPE svg PUBLIC "-//W3C//DTD SVG 1.1//EN" "http://www.w3.org/Graphics/SVG/1.1/DTD/svg11.dtd">
<!-- Creator: CorelDRAW 2021.5 -->
<svg xmlns="http://www.w3.org/2000/svg" xml:space="preserve" width="19.4732mm" height="19.4732mm" version="1.1" style="shape-rendering:geometricPrecision; text-rendering:geometricPrecision; image-rendering:optimizeQuality; fill-rule:evenodd; clip-rule:evenodd"
viewBox="0 0 1947.32 1947.32"
 xmlns:xlink="http://www.w3.org/1999/xlink"
 xmlns:xodm="http://www.corel.com/coreldraw/odm/2003">
 <defs>
  <style type="text/css">
   <![CDATA[
    .fil0 {fill:none}
    .fil1 {fill:#ED3237}
   ]]>
  </style>
 </defs>
 <g id="Capa_x0020_1">
  <metadata id="CorelCorpID_0Corel-Layer"/>
  <rect class="fil0" x="-0" y="-0.02" width="1947.33" height="1947.33"/>
  <path class="fil1" d="M1796.33 1286.17c-33.13,-2.2 -103.8,37.55 -122.57,47.49 -69.57,35.33 -164.53,91.65 -226.37,136.92 -4.42,2.21 -11.04,6.63 -15.46,9.94 -27.6,18.77 -57.42,30.92 -90.55,38.65 -181.09,39.75 -447.21,44.17 -447.21,44.17l-15.46 1.1c-11.04,0 -22.09,-7.73 -23.19,-19.87 -2.21,-12.15 6.63,-24.3 19.88,-25.4l394.21 -39.75c44.17,-4.42 78.4,-46.38 73.98,-93.86 -5.52,-47.49 -47.48,-82.82 -90.54,-77.3l-351.15 -4.42c-23.19,0 -61.84,-6.62 -85.03,-13.25 -225.26,-68.46 -352.25,-4.42 -420.71,25.4 -15.46,-25.4 -44.17,-43.07 -76.2,-40.86l-151.28 11.04c-49.69,3.32 -88.33,47.49 -83.92,97.18l24.3 347.83c3.31,50.8 46.37,88.34 97.17,85.03l151.28 -9.94c30.92,-2.21 57.42,-23.19 68.46,-50.79l664.75 29.81c73.99,7.73 143.55,-1.1 207.6,-36.44l19.88 -11.04 501.32 -304.77c25.4,-14.36 43.06,-40.86 43.06,-69.57 1.11,-34.23 -17.66,-72.88 -66.25,-77.3zm-1534.89 447.22c-28.71,0 -51.9,-22.08 -51.9,-50.79 0,-28.71 23.19,-51.9 51.9,-51.9 28.71,0 50.8,23.19 50.8,51.9 0,27.6 -22.09,50.79 -50.8,50.79z"/>
  <path class="fil1" d="M1415.37 1341.39c4.42,12.14 6.62,23.19 7.73,36.44 1.1,8.83 1.1,18.77 0,28.71 5.52,-3.32 11.04,-7.73 16.56,-11.05 50.8,-37.54 155.7,-97.17 215.33,-128.09 17.67,-8.83 36.44,-18.77 56.31,-25.39 -25.39,-18.78 -53,-18.78 -81.71,-7.73 -56.32,23.18 -160.11,75.08 -213.12,104.9 0,1.1 0,2.21 -1.1,2.21z"/>
  <path class="fil1" d="M1493.77 1193.42c-34.23,14.35 -112.63,40.86 -146.86,59.63 14.35,8.83 27.6,20.98 38.64,35.33 2.21,-2.21 4.42,-3.31 7.73,-5.52l25.4 -14.35c36.44,-20.98 115.95,-49.69 156.8,-68.47 -26.5,-17.66 -54.1,-18.77 -81.71,-6.62z"/>
  <path class="fil1" d="M622.53 640.2c5.52,6.62 5.52,12.14 0,19.87 -22.09,33.13 -44.17,66.26 -65.15,100.49 -19.88,33.12 -7.73,70.67 28.71,85.02 37.54,14.36 75.08,28.71 112.63,43.07 7.73,2.21 9.94,6.62 11.04,14.35 1.11,38.65 5.52,76.2 5.52,113.74 -1.1,38.65 33.13,72.88 79.51,58.53 36.44,-12.15 73.98,-19.88 110.42,-30.92 7.73,-2.21 12.15,-1.11 16.56,5.52 24.3,30.92 49.7,61.84 75.09,91.65 27.61,33.13 66.26,33.13 93.86,0 24.3,-30.92 48.59,-60.73 72.88,-91.65 5.52,-6.63 8.84,-8.84 16.57,-6.63 38.64,11.04 77.29,20.98 115.94,30.92 38.65,11.04 72.88,-13.25 75.09,-53 2.21,-39.75 4.42,-79.51 5.52,-119.26 0,-8.83 4.42,-13.25 12.15,-15.46 36.44,-14.35 72.88,-28.71 108.21,-41.96 39.75,-15.46 51.9,-54.11 28.71,-88.34 -20.98,-33.13 -41.96,-66.25 -64.04,-99.38 -5.52,-6.63 -4.42,-12.15 0,-18.77 20.98,-33.13 41.96,-65.15 62.94,-97.18 24.29,-37.54 11.04,-76.19 -30.92,-91.65 -36.44,-13.25 -71.78,-27.6 -108.22,-39.75 -7.73,-3.31 -9.93,-7.73 -9.93,-15.46 -2.21,-39.75 -4.42,-78.4 -6.63,-118.15 -2.21,-40.86 -35.34,-65.15 -75.09,-54.11 -38.65,9.94 -76.19,19.88 -113.73,30.92 -8.84,2.21 -13.25,0 -18.78,-6.63 -24.29,-29.81 -48.58,-60.73 -72.88,-90.54 -26.5,-33.13 -67.35,-33.13 -93.86,0 -24.29,29.81 -48.58,59.62 -71.77,90.54 -6.63,7.73 -13.25,9.94 -22.09,6.63 -37.54,-9.94 -73.98,-19.88 -100.48,-27.61 -51.9,-12.14 -82.82,8.84 -85.03,51.9 -3.31,39.75 -4.41,78.4 -6.62,118.16 0,8.83 -3.32,12.14 -9.94,15.45 -37.55,13.26 -75.09,27.61 -111.53,43.07 -38.65,14.35 -50.79,53 -27.61,87.23 19.88,33.13 40.86,66.26 62.95,99.39zm279.37 167.84c3.31,-13.25 7.73,-26.5 11.04,-39.75 5.52,-15.46 8.83,-17.67 23.19,-9.94 23.19,12.15 49.69,18.77 75.09,22.08 17.67,2.21 34.23,1.11 49.69,-6.62 29.81,-12.15 34.23,-46.38 9.94,-67.36 -8.84,-6.63 -18.78,-12.15 -28.71,-16.56 -25.4,-11.05 -53.01,-19.88 -77.3,-34.23 -39.75,-23.19 -65.15,-56.32 -61.84,-104.91 3.32,-54.1 34.23,-88.34 83.92,-107.11 20.98,-7.73 20.98,-6.62 20.98,-28.71 0,-6.62 0,-14.35 0,-22.08 1.11,-15.46 3.32,-18.78 19.88,-18.78 4.42,0 9.94,0 14.36,0 34.23,0 34.23,0 35.33,34.24 0,24.29 0,24.29 24.3,28.71 18.77,2.2 36.43,7.73 54.1,15.46 8.84,4.41 12.15,11.04 9.94,20.98 -4.42,15.46 -8.83,29.81 -13.25,44.17 -4.42,14.35 -8.83,16.56 -22.08,9.93 -27.61,-13.25 -55.22,-18.77 -85.03,-16.56 -7.73,0 -15.46,1.1 -23.19,4.42 -25.4,11.04 -29.81,39.75 -7.73,57.42 11.04,8.83 23.19,15.46 36.44,20.98 23.19,8.83 46.38,17.67 67.36,29.81 69.57,37.55 87.23,124.78 39.75,183.31 -17.67,20.98 -40.86,36.44 -67.36,43.06 -12.14,3.31 -16.56,8.83 -16.56,20.98 0,12.15 0,24.29 0,35.34 0,11.04 -5.52,16.56 -15.46,16.56 -13.25,1.1 -25.4,1.1 -38.65,0 -11.04,0 -16.56,-6.62 -16.56,-17.67 0,-7.73 0,-16.56 0,-25.39 0,-18.78 -1.11,-19.88 -18.77,-23.19 -24.3,-3.32 -47.49,-8.84 -68.47,-18.78 -17.66,-8.83 -18.77,-13.25 -14.35,-29.81z"/>
  <g id="_798902704">
  </g>
  <g id="_798901520">
  </g>
  <g id="_798907824">
  </g>
  <g id="_798901872">
  </g>
  <g id="_798907536">
  </g>
  <g id="_798901840">
  </g>
  <g id="_798907696">
  </g>
  <g id="_798906608">
  </g>
  <g id="_798905328">
  </g>
  <g id="_798905904">
  </g>
  <g id="_798907568">
  </g>
  <g id="_798905040">
  </g>
  <g id="_798902544">
  </g>
  <g id="_798901488">
  </g>
  <g id="_798903440">
  </g>
 </g>
</svg>
