<?xml version="1.0" encoding="UTF-8"?>
<!DOCTYPE svg PUBLIC "-//W3C//DTD SVG 1.1//EN" "http://www.w3.org/Graphics/SVG/1.1/DTD/svg11.dtd">
<!-- Creator: CorelDRAW 2021.5 -->
<svg xmlns="http://www.w3.org/2000/svg" xml:space="preserve" width="46.487mm" height="38.5478mm" version="1.1" style="shape-rendering:geometricPrecision; text-rendering:geometricPrecision; image-rendering:optimizeQuality; fill-rule:evenodd; clip-rule:evenodd"
viewBox="0 0 4648.7 3854.78"
 xmlns:xlink="http://www.w3.org/1999/xlink"
 xmlns:xodm="http://www.corel.com/coreldraw/odm/2003">
 <defs>
  <style type="text/css">
   <![CDATA[
    .str0 {stroke:#2E5E8D;stroke-width:0.98;stroke-miterlimit:22.9256}
    .fil0 {fill:none}
    .fil1 {fill:#2E5E8D}
   ]]>
  </style>
 </defs>
 <g id="Capa_x0020_1">
  <metadata id="CorelCorpID_0Corel-Layer"/>
  <rect class="fil0" x="1054.35" y="657.4" width="2539.99" height="2539.99"/>
  <rect class="fil0" x="1054.35" y="657.4" width="2539.99" height="2539.99"/>
  <g id="_2237967127200">
   <g>
    <path class="fil1 str0" d="M483.58 2934.06l-56.98 -106.39 -57.58 106.39 114.56 0zm103.05 94.4l-51.62 0 -27.55 -51.83 -162.01 0 -27.89 51.83 -51.62 0 131.2 -240.79 58.34 0 131.15 240.79z"/>
    <polygon class="fil1 str0" points="913.72,3028.46 843.53,3028.46 679.65,2827.53 679.65,3028.46 632.86,3028.46 632.86,2787.67 703.02,2787.67 866.89,2988.66 866.89,2787.67 913.72,2787.67 "/>
    <path class="fil1 str0" d="M1296.59 2896.54l0 7.45c0,39.11 -14.28,70.8 -42.88,95.03 -28.56,24.21 -66.63,36.35 -114.1,36.35 -42.84,0 -78.79,-10.54 -107.74,-31.72 -33.69,-24.55 -50.53,-56.68 -50.53,-96.36 0,-39.17 16.82,-70.98 50.53,-95.53 29.51,-21.71 66.29,-32.55 110.39,-32.55 53.29,0 97.44,18.72 132.47,56.06l-44.27 22.01c-24.54,-23.57 -54.8,-35.37 -90.85,-35.37 -31.82,0 -58.11,8.07 -78.76,24.25 -20.51,16.18 -30.83,36.56 -30.83,61.13 0,25.24 10.04,45.93 30.12,61.84 20.15,15.96 46.58,23.95 79.47,23.95 49.3,0 82.08,-18.01 98.3,-53.84l-108.51 0 0 -42.7 167.19 0z"/>
    <polygon class="fil1 str0" points="1623.61,3028.46 1364.42,3028.46 1364.42,2787.67 1614.65,2787.67 1614.65,2830.32 1411.24,2830.32 1411.24,2882.05 1552.72,2882.05 1552.72,2924.66 1411.24,2924.66 1411.24,2985.78 1623.61,2985.78 "/>
    <polygon class="fil1 str0" points="1917.34,3028.46 1684.31,3028.46 1684.31,2787.67 1731.22,2787.67 1731.22,2985.78 1917.34,2985.78 "/>
    <polygon class="fil1 str0" points="2372.26,3028.46 2113.07,3028.46 2113.07,2787.67 2363.33,2787.67 2363.33,2830.32 2159.97,2830.32 2159.97,2882.05 2301.37,2882.05 2301.37,2924.66 2159.97,2924.66 2159.97,2985.78 2372.26,2985.78 "/>
    <path class="fil1 str0" d="M2651.03 2847.15c-31.42,-16.49 -65.42,-24.69 -102.3,-24.69 -53.56,0 -80.31,9.6 -80.31,28.65 0,11.16 9.99,18.52 30.18,21.85 27.37,2.34 54.9,4.83 82.36,7.49 39.47,3.9 67.5,10.93 84.31,21.14 18.51,11.22 27.82,28.26 27.82,51.25 0,25.81 -11.59,45.81 -34.66,59.85 -23.14,14.14 -56.68,21.13 -100.48,21.13 -61.87,0 -111.4,-14.12 -148.55,-42.23l25.55 -33.28c33.1,23.16 73.92,34.77 122.26,34.77 27.1,0 48.1,-3.5 63.13,-10.42 14.76,-6.88 22.24,-16.05 22.24,-27.58 0,-12.72 -9.18,-21.8 -27.44,-27 -10.18,-2.86 -26.04,-4.84 -47.45,-5.87 -33.46,-1.56 -53.91,-2.77 -61.57,-3.5 -29.75,-2.91 -51.73,-9.28 -65.82,-19.19 -14.12,-9.9 -21.19,-24.39 -21.19,-43.44 0,-22.91 11.3,-41.16 33.88,-54.55 22.6,-13.5 54.23,-20.19 95.03,-20.19 54.33,0 98.33,11.76 132.05,35.21l-29.04 30.6z"/>
    <polygon class="fil1 str0" points="2997.62,2830.32 2882.47,2830.32 2882.47,3028.46 2835.53,3028.46 2835.53,2830.32 2720.39,2830.32 2720.39,2787.67 2997.62,2787.67 "/>
    <path class="fil1 str0" d="M3236.39 2897.21c28.47,0 42.64,-10.82 42.64,-32.42 0,-22.94 -15.09,-34.47 -45.48,-34.47l-138.03 0 0 66.89 140.87 0zm95.74 131.25l-54.13 0 -63.15 -88.67 -119.33 0 0 88.67 -46.83 0 0 -240.79 194.65 0c25.58,0 45.96,6.96 61.13,20.74 15.17,13.84 22.69,32.43 22.69,55.63 0,39.91 -19.94,64.34 -59.94,73.17l64.91 91.25z"/>
    <path class="fil1 str0" d="M3580.49 2934.06l-57.05 -106.39 -57.6 106.39 114.65 0zm103.03 94.4l-51.67 0 -27.45 -51.83 -162.11 0 -27.89 51.83 -51.62 0 131.18 -240.79 58.38 0 131.18 240.79z"/>
    <path class="fil1 str0" d="M3896.44 2985.78c23.03,0 41.89,-7.22 56.59,-21.53 14.82,-14.39 22.18,-32.61 22.18,-54.82 0,-23.75 -7.81,-42.85 -23.47,-57.36 -15.65,-14.5 -36.56,-21.75 -62.69,-21.75l-112.49 0 0 155.46 119.88 0zm-10.85 -198.11c42.32,0 76.22,11.07 101.77,33.32 25.63,22.15 38.33,50.64 38.33,85.29 0.02,31.61 -13.41,61.89 -40.27,90.84 -7.62,8.3 -19.54,15.5 -36.06,21.54 -18.02,6.51 -36.7,9.8 -55.97,9.8l-163.68 0 0 -240.79 155.88 0z"/>
    <path class="fil1 str0" d="M4271.68 2934.06l-56.94 -106.39 -57.65 106.39 114.59 0zm103.12 94.4l-51.69 0 -27.52 -51.83 -162.1 0 -27.85 51.83 -51.64 0 131.22 -240.79 58.35 0 131.23 240.79z"/>
   </g>
   <g>
    <path class="fil1 str0" d="M2550.24 1761.26c67.58,-46.82 145.71,-81.72 233.95,-104.7l0 -121.1c-315.82,92.4 -548.94,184.28 -698.53,275.49 -152.76,93.15 -229.18,219.32 -229.18,378.11 0,130.06 41.88,225.85 125.72,287.48 83.76,61.51 173.94,92.35 270.4,92.35 72.33,0 145.76,-12.74 220.39,-37.98 114.79,-37.56 218.46,-100.59 311.2,-188.6l0 -157.8c-32.01,35.44 -59.95,62.2 -83.97,80.19 -49.48,34.57 -102.87,51.81 -160.32,51.81 -43.69,0 -83.01,-19.83 -118.12,-59.51 -35.08,-39.66 -52.56,-97.96 -52.56,-174.98 0,-129.88 60.34,-236.76 181.02,-320.76z"/>
    <path class="fil1 str0" d="M1947.43 1571.3c47.51,40.12 105.3,60.18 173.01,60.18 58.63,0 110,-18.1 154.11,-54.39 44.26,-36.17 66.44,-87.72 66.44,-154.45 0,-26.47 -5.04,-51.52 -14.69,-75.1 -9.92,-23.53 -22.64,-45.12 -38.75,-64.66l-20.66 -24.2c-9.2,-10.42 -16.13,-20.19 -20.73,-29.32 -4.63,-9.28 -6.96,-20.76 -6.96,-34.59 0.03,-35.65 20.45,-65.17 61.25,-88.8 40.72,-23.63 64.74,-36.79 129.5,-57.4l231.98 -85.57c29.78,-11.79 10,-8.04 42.58,-16.57l0 -121c-233.71,68.33 -371.02,122.5 -513.86,190.2 -50.18,23.82 -94.85,47.6 -133.68,71.36 -22.68,13.8 -43.44,28.44 -62.78,43.72 -78.72,71.66 -118.3,160.6 -118.3,266.9 0,75.68 23.79,133.56 71.54,173.69z"/>
   </g>
  </g>
 </g>
</svg>
