<?xml version="1.0" encoding="UTF-8"?>
<!DOCTYPE svg PUBLIC "-//W3C//DTD SVG 1.1//EN" "http://www.w3.org/Graphics/SVG/1.1/DTD/svg11.dtd">
<!-- Creator: CorelDRAW 2021.5 -->
<svg xmlns="http://www.w3.org/2000/svg" xml:space="preserve" width="46.487mm" height="38.5478mm" version="1.1" style="shape-rendering:geometricPrecision; text-rendering:geometricPrecision; image-rendering:optimizeQuality; fill-rule:evenodd; clip-rule:evenodd"
viewBox="0 0 4648.7 3854.78"
 xmlns:xlink="http://www.w3.org/1999/xlink"
 xmlns:xodm="http://www.corel.com/coreldraw/odm/2003">
 <defs>
  <style type="text/css">
   <![CDATA[
    .str0 {stroke:#FFF215;stroke-width:100;stroke-miterlimit:22.9256}
    .fil0 {fill:none}
    .fil2 {fill:#054235}
    .fil1 {fill:#FFF215}
   ]]>
  </style>
 </defs>
 <g id="Capa_x0020_1">
  <metadata id="CorelCorpID_0Corel-Layer"/>
  <rect class="fil0" x="1054.35" y="657.4" width="2539.99" height="2539.99"/>
  <g id="_105553264678688">
   <g>
    <path class="fil1 str0" d="M789.48 1847.82c-1.96,33.03 -46.62,42.89 -116.61,83.7 -156.19,91.13 -331.53,239.1 -426.84,392.22 -30.85,49.56 -43.91,83.36 -63.56,142.99 -40.04,121.3 -42.73,234.79 18.47,346.15 83.31,151.62 264.19,189.36 432.3,184.21 237.72,-7.3 577.83,-138.56 684.23,-356.06 70.53,-144.25 -94.07,-215.16 -179.54,-90.38 -205.1,299.44 -798.31,351.57 -729.21,-35.23 34.17,-191.32 222.15,-354.93 369.97,-456.09 170.53,-116.66 327.28,-154.21 398.7,-215.72 58.85,-50.65 63.54,-134.26 41.15,-161.99 -39.99,-49.49 -436.29,73.14 -598.28,-32.59 -12.72,-91.71 85,-172.75 143.27,-226.81 94.18,-87.33 300.61,-191.83 433.9,-212.48 79.64,-12.33 138.95,37.45 212.11,-5.75 45.7,-26.96 96.06,-90.28 99.57,-154.5 9.5,-174.28 -275.22,-69.49 -360.66,-41.15 -163.57,54.23 -357.52,165.01 -489.58,272.65 -102.13,83.25 -355.95,330.9 -281.51,471.71 71.79,135.79 294.88,50.03 412.12,95.12z"/>
    <path class="fil1 str0" d="M3458.5 1694.15c-8.94,68.81 -149.8,165.78 -123.89,476.13 31.58,377.95 834.41,283.58 965.48,-415.11 50.6,-269.8 -89.24,-454.28 -352.15,-453.05 -194.22,0.92 -429.5,96.5 -514.07,236.22 -72.59,119.95 -6.27,133.44 24.63,155.81zm416.88 -199.62c-85.2,16.76 -146.45,50.12 -195.87,128.15 -43.4,68.49 -84.04,134.09 -110.42,210.51 -141.68,410.5 154.48,487.31 386.9,227.57 55.53,-62.07 81.24,-121.4 118.9,-202.54 80.28,-172.95 24.16,-407.64 -199.51,-363.69z"/>
    <path class="fil1 str0" d="M3097.07 1322.77l-89.27 324.04c-32.42,114.6 -58,227.97 -81.91,343.52 -23.07,111.43 -138.37,674.75 -38.98,734.21 75.39,19.41 135.66,-21.16 174.33,-65.69 61.12,-70.39 9.38,-106.75 -1.99,-135.14 -79.2,-197.75 127.73,-835.63 193.35,-1079.35l61.13 -189.26c51.54,-32.93 458.38,-114.63 552.61,-132.47l450.21 -70.41c61.83,-7.66 111.95,10.88 140.62,-35.01 55.44,-161.75 -414.7,-98.31 -514.14,-80.29 -89.46,16.2 -182.81,30.7 -279.64,48.69 -55.15,10.25 -235.81,55.9 -270.7,56.12 -0.19,-46.74 65.3,-187.89 86.65,-239.29 29.6,-71.25 115.96,-158.66 35.45,-241.1 -122.46,-125.44 -161.2,24.13 -179.57,66.39 -35.16,80.9 -60.66,163.47 -89.12,246.76l-58.58 183.2c-11.37,30.75 -8.61,35.66 -40.86,47.36 -107.74,39.14 -297.05,58.08 -334.51,170.21 -16.12,48.29 -20.81,114.2 32.21,126.31 62.74,14.34 176.35,-76.38 252.71,-78.8z"/>
    <path class="fil1 str0" d="M1745.38 2052.78c-62.21,-24.33 -125.17,-183.22 -108.97,-305.25 6.77,-50.77 43.2,-124.4 -3.61,-160.13 -52.68,-40.21 -114.58,-8.58 -147.97,28.84 -67.31,75.54 -53.36,239.03 -27.46,337.02 18.18,68.74 59.35,151.21 107.25,206.92 66.37,77.12 85.57,37.25 -38.06,222.31 -63.99,95.84 -262.69,455.08 -163.8,535.23 55.51,44.99 148.14,-8 177.76,-45.6 26.59,-33.73 19,-51.96 25.96,-99.2 19.18,-129.79 163.18,-427.25 200.85,-434.41l153.26 71.18c105.56,35.66 276.77,86.63 355.56,-8.9 116.11,-140.74 -110.13,-143.71 -140.74,-147.41 -31.07,-3.75 -64.94,-11.51 -94.77,-18.76 -34.09,-8.27 -53.82,-16.9 -83.25,-26.94 -29.18,-9.98 -72.29,-14.53 -64.65,-49.68 7.2,-33.05 289.07,-354.52 378.29,-413.78 44.32,-29.43 111.82,-32.84 107.44,-123.41 -1.78,-36.96 -15.23,-67.43 -37.57,-82.93 -97.02,-67.33 -330.2,200.39 -389.38,267.22l-206.14 247.68z"/>
    <path class="fil1 str0" d="M1938.19 3345.67c36.63,21.35 71.57,15.45 109.34,-3.29 362.91,-180.03 1108.48,-380.59 1496.95,-415.72 110.13,-9.96 166.9,-25.09 293.69,-24.66 65.28,0.2 142.02,21.55 196.78,-0.84 76.09,-31.1 129.45,-141.47 94.22,-203.9 -31.28,-55.46 -240.28,-24.03 -291,-19.51 -78.97,7.06 -470.99,65.14 -541.85,92.24 -50.12,19.15 -119.76,25.27 -178.22,40.57 -118.3,30.93 -225.63,54.14 -336.65,88.93 -103.68,32.49 -230.44,63.83 -325.73,105.05 -49.39,21.37 -108.6,39.29 -153.41,59.04 -127.87,56.36 -379.3,147.25 -364.12,282.09z"/>
    <path class="fil1 str0" d="M2365.9 2506.38c0,70.67 20.58,95.16 93.84,79.57 148.62,-31.65 73.26,-181.53 132.9,-393.79 12.7,-45.21 22.37,-92.53 34.67,-143.9 12.91,-53.85 65.14,-207.35 94.59,-255.03 22.1,-35.76 54.16,-80.27 37.57,-141.08 -12.23,-44.92 -129.67,-159.5 -204.11,-19.01 -78.36,147.88 -189.46,684.19 -189.46,873.24z"/>
    <path class="fil1 str0" d="M907.56 874.59c6.31,134.88 576.23,-102.28 544.56,-226.84 -22.61,-38.57 -95.31,-81.12 -154.96,-74.71 -30.8,126.35 -154.08,205.32 -265.42,254.06 -38.44,16.83 -89.17,29.13 -124.18,47.49z"/>
    <path class="fil1 str0" d="M2779.78 868.88c-160.93,80.46 -149.83,331.17 12.11,262.26 140.89,-59.99 152.88,-344.78 -12.11,-262.26z"/>
   </g>
   <g>
    <path class="fil2" d="M822.94 1831.09c-1.94,33.03 -46.59,42.89 -116.59,83.7 -156.21,91.13 -331.53,239.1 -426.83,392.22 -30.86,49.56 -43.94,83.36 -63.59,142.99 -40.02,121.3 -42.72,234.79 18.47,346.15 83.32,151.62 264.19,189.36 432.33,184.21 237.69,-7.3 577.82,-138.56 684.21,-356.07 70.52,-144.24 -94.06,-215.15 -179.55,-90.37 -205.1,299.44 -798.28,351.57 -729.21,-35.23 34.17,-191.32 222.15,-354.93 370,-456.07 170.53,-116.68 327.25,-154.23 398.69,-215.74 58.83,-50.65 63.52,-134.26 41.13,-161.99 -39.99,-49.49 -436.27,73.14 -598.28,-32.59 -12.7,-91.71 85.01,-172.75 143.3,-226.81 94.15,-87.34 300.58,-191.83 433.9,-212.48 79.64,-12.33 138.92,37.45 212.11,-5.75 45.67,-26.96 96.06,-90.29 99.56,-154.5 9.48,-174.25 -275.21,-69.49 -360.68,-41.15 -163.57,54.25 -357.5,165.01 -489.58,272.65 -102.1,83.25 -355.92,330.9 -281.5,471.71 71.78,135.81 294.87,50.03 412.11,95.12z"/>
    <path class="fil2" d="M3491.96 1677.41c-8.92,68.81 -149.78,165.79 -123.86,476.14 31.58,377.95 834.41,283.58 965.45,-415.09 50.63,-269.82 -89.24,-454.3 -352.15,-453.07 -194.2,0.92 -429.5,96.5 -514.05,236.22 -72.58,119.95 -6.26,133.44 24.61,155.8zm416.88 -199.61c-85.18,16.76 -146.44,50.12 -195.86,128.14 -43.38,68.5 -84.02,134.1 -110.4,210.52 -141.68,410.49 154.47,487.31 386.87,227.56 55.54,-62.06 81.24,-121.39 118.91,-202.53 80.29,-172.95 24.15,-407.64 -199.52,-363.69z"/>
    <path class="fil2" d="M3130.55 1306.04l-89.29 324.03c-32.42,114.61 -57.97,227.98 -81.89,343.55 -23.06,111.41 -138.39,674.73 -39,734.19 75.39,19.41 135.69,-21.16 174.33,-65.7 61.12,-70.38 9.4,-106.74 -1.99,-135.13 -79.2,-197.72 127.74,-835.63 193.36,-1079.35l61.12 -189.26c51.54,-32.93 458.41,-114.63 552.61,-132.47l450.22 -70.41c61.82,-7.66 111.96,10.88 140.61,-35.01 55.47,-161.75 -414.7,-98.28 -514.12,-80.29 -89.45,16.19 -182.83,30.7 -279.64,48.69 -55.15,10.25 -235.8,55.9 -270.72,56.12 -0.17,-46.71 65.33,-187.87 86.68,-239.29 29.57,-71.25 115.93,-158.66 35.45,-241.1 -122.49,-125.44 -161.22,24.13 -179.6,66.39 -35.13,80.9 -60.66,163.47 -89.09,246.76l-58.61 183.19c-11.36,30.76 -8.61,35.67 -40.84,47.37 -107.73,39.14 -297.05,58.07 -334.5,170.21 -16.15,48.28 -20.84,114.19 32.18,126.31 62.74,14.33 176.38,-76.38 252.73,-78.8z"/>
    <path class="fil2" d="M1778.86 2036.07c-62.23,-24.35 -125.19,-183.24 -108.97,-305.27 6.75,-50.77 43.21,-124.4 -3.63,-160.13 -52.65,-40.21 -114.55,-8.58 -147.94,28.87 -67.31,75.5 -53.38,239 -27.49,336.99 18.18,68.74 59.36,151.23 107.28,206.91 66.34,77.13 85.54,37.26 -38.06,222.32 -64.02,95.84 -262.69,455.08 -163.83,535.23 55.51,44.99 148.16,-8.01 177.78,-45.58 26.57,-33.75 18.98,-51.98 25.97,-99.22 19.15,-129.79 163.15,-427.25 200.85,-434.41l153.26 71.18c105.54,35.66 276.76,86.63 355.56,-8.9 116.08,-140.74 -110.13,-143.69 -140.74,-147.41 -31.09,-3.75 -64.97,-11.51 -94.8,-18.74 -34.09,-8.29 -53.82,-16.92 -83.25,-26.96 -29.18,-9.98 -72.29,-14.53 -64.62,-49.68 7.18,-33.05 289.07,-354.52 378.28,-413.78 44.32,-29.43 111.83,-32.81 107.43,-123.41 -1.79,-36.97 -15.21,-67.43 -37.58,-82.93 -97.02,-67.33 -330.17,200.39 -389.38,267.22l-206.12 247.7z"/>
    <path class="fil2" d="M1971.68 3328.94c36.61,21.35 71.54,15.45 109.31,-3.29 362.91,-180.03 1108.51,-380.56 1496.98,-415.72 110.1,-9.96 166.9,-25.09 293.69,-24.66 65.25,0.19 141.99,21.54 196.78,-0.84 76.06,-31.1 129.42,-141.47 94.22,-203.9 -31.29,-55.46 -240.3,-24.03 -291.03,-19.48 -78.96,7.03 -470.96,65.11 -541.85,92.21 -50.12,19.17 -119.75,25.27 -178.19,40.57 -118.3,30.92 -225.65,54.13 -336.68,88.93 -103.67,32.49 -230.42,63.83 -325.72,105.07 -49.38,21.38 -108.59,39.29 -153.39,59.02 -127.9,56.36 -379.33,147.25 -364.12,282.09z"/>
    <path class="fil2" d="M2399.36 2489.65c0,70.67 20.58,95.16 93.84,79.57 148.62,-31.65 73.26,-181.51 132.9,-393.79 12.7,-45.21 22.37,-92.53 34.68,-143.88 12.93,-53.87 65.13,-207.38 94.6,-255.05 22.08,-35.76 54.16,-80.25 37.58,-141.08 -12.24,-44.93 -129.67,-159.5 -204.14,-19.01 -78.33,147.88 -189.43,684.19 -189.46,873.24z"/>
    <path class="fil2" d="M941.05 857.85c6.28,134.89 576.23,-102.27 544.53,-226.83 -22.58,-38.57 -95.31,-81.12 -154.93,-74.71 -30.8,126.35 -154.11,205.32 -265.45,254.06 -38.44,16.85 -89.17,29.13 -124.15,47.48z"/>
    <path class="fil2" d="M2813.27 852.15c-160.93,80.46 -149.83,331.16 12.11,262.26 140.88,-59.99 152.88,-344.78 -12.11,-262.26z"/>
   </g>
  </g>
 </g>
</svg>
