<?xml version="1.0" encoding="UTF-8"?>
<!DOCTYPE svg PUBLIC "-//W3C//DTD SVG 1.1//EN" "http://www.w3.org/Graphics/SVG/1.1/DTD/svg11.dtd">
<!-- Creator: CorelDRAW 2021.5 -->
<svg xmlns="http://www.w3.org/2000/svg" xml:space="preserve" width="46.487mm" height="38.5478mm" version="1.1" style="shape-rendering:geometricPrecision; text-rendering:geometricPrecision; image-rendering:optimizeQuality; fill-rule:evenodd; clip-rule:evenodd"
viewBox="0 0 4648.7 3854.78"
 xmlns:xlink="http://www.w3.org/1999/xlink"
 xmlns:xodm="http://www.corel.com/coreldraw/odm/2003">
 <defs>
  <style type="text/css">
   <![CDATA[
    .fil0 {fill:none}
    .fil1 {fill:#EE3338}
    .fil2 {fill:white}
   ]]>
  </style>
 </defs>
 <g id="Capa_x0020_1">
  <metadata id="CorelCorpID_0Corel-Layer"/>
  <rect class="fil0" x="1054.35" y="657.4" width="2539.99" height="2539.99"/>
  <g id="_105553221924576">
   <g>
    <path class="fil1" d="M2213.81 133.28c-140,19.45 -235.45,52.76 -339.72,112.87 -93.14,53.69 -185.73,131.75 -242.62,206.36 -134.56,176.45 -236.1,391.67 -197.02,689.85 59.47,453.77 476.07,837.22 1005.36,771.73 454.12,-56.2 841.15,-477.08 775.64,-1003.07 -60.38,-484.75 -510.47,-846.02 -1001.64,-777.74z"/>
    <path class="fil2" d="M1746.6 1647.53c59.59,-41.18 68.5,-86.54 169.63,-118.78 -5.3,-134.11 104.83,-403.18 320.4,-405.8 74.11,-0.91 91.36,35.57 141.22,-5.69 68.92,-57.06 255.63,-201.59 289.15,-261.47 -139.8,-10.91 -167.83,79.75 -342.28,-1.58l120.49 -36.9c37.45,-13.09 74.49,-26.97 113.1,-41.89 132.73,-51.3 86.66,-35.57 203.21,-64.53 9.8,-2.43 1.64,0.52 12.86,-3.72 20.76,-7.8 2.84,3.26 17.66,-9.52 -101.89,-49.55 -201.53,-13.23 -311.15,0.93 18.51,-42.53 119.14,-84.02 178.73,-107.5l222.39 -73.2c-126.71,-31.42 -222.89,32.12 -290.64,49.22 74.74,-90.84 159.59,-142.39 279.5,-208.94 -124.04,10.66 -318.67,146.05 -393.66,205.43 -224.21,177.49 -385.26,423.37 -533.24,674.78 -54.77,93.03 -169.99,295.88 -197.37,409.16z"/>
    <path class="fil2" d="M1746.6 1647.53c59.59,-41.18 68.5,-86.54 169.63,-118.78 -5.3,-134.11 104.83,-403.18 320.4,-405.8 74.11,-0.91 91.36,35.57 141.22,-5.69 68.92,-57.06 255.63,-201.59 289.15,-261.47 -139.8,-10.91 -167.83,79.75 -342.28,-1.58l120.49 -36.9c37.45,-13.09 74.49,-26.97 113.1,-41.89 132.73,-51.3 86.66,-35.57 203.21,-64.53 9.8,-2.43 1.64,0.52 12.86,-3.72 20.76,-7.8 2.84,3.26 17.66,-9.52 -101.89,-49.55 -201.53,-13.23 -311.15,0.93 18.51,-42.53 119.14,-84.02 178.73,-107.5l222.39 -73.2c-126.71,-31.42 -222.89,32.12 -290.64,49.22 74.74,-90.84 159.59,-142.39 279.5,-208.94 -124.04,10.66 -318.67,146.05 -393.66,205.43 -224.21,177.49 -385.26,423.37 -533.24,674.78 -54.77,93.03 -169.99,295.88 -197.37,409.16z"/>
   </g>
   <g>
    <path class="fil1" d="M2250.78 3093.03l-33.54 128.61c76.82,-24.26 160.57,-91.54 306.52,-53.23 233.81,61.34 207.21,386.12 -96.02,368.08 -151.26,-9.01 -185.98,-72.78 -260.89,-133.52 -24.27,13.03 -124.98,118.37 -138.98,147.03 59.28,50.65 31.27,45.73 130.4,106.44 156.71,95.98 422.56,97.78 585.46,5.51 94.73,-53.65 179.83,-149.5 173.46,-307.89 -3.02,-75.03 -33.17,-134.02 -65.58,-178.75 -42.41,-58.51 -84.8,-60.94 -136.28,-105.53 144.01,-67.86 223.13,-200.74 171.44,-362.18 -18.87,-58.97 -52.99,-85.13 -67.97,-123.88l127.7 -0.5 48.08 -194.46c-167.07,35.31 -218.14,66.18 -404.94,53.46 -160.05,-10.94 -284.53,-3.74 -398.95,70.79 -85.84,55.92 -161.66,165.5 -150.91,317.3 10.22,143.99 95.64,223.76 211,262.72z"/>
    <path class="fil1" d="M3400.73 2446.11c-244.14,46.15 -467.32,262.94 -409.18,564.49 45.77,237.43 286.65,441.89 591.71,388.14 238.88,-42.08 464.37,-269.64 403.97,-567.45 -47.65,-235.02 -289.32,-441.34 -586.5,-385.18z"/>
    <path class="fil1" d="M789.51 2466.45l-91.92 0c-12.1,33 -48.42,165.08 -45.9,198.43l137.78 0 0.14 726.77 228.75 -13.15 0 -710.5 229.67 -3.56 2.95 -196.53 -230.4 -1.6c10.41,-186.84 177.23,-120.5 317.75,-136.54 -9.07,-23.76 -63.91,-205.65 -93.66,-212.22 -126.16,1.31 -243.14,18.85 -321.31,82.99 -70.15,57.55 -127.02,138.69 -133.85,265.91z"/>
    <path class="fil1" d="M1721.77 2150.13l0.04 1240 229.27 -12.21 -0.19 -1254.43c-38.23,-5.98 -188.62,15.27 -229.12,26.64z"/>
    <path class="fil2" d="M3420.9 2656.2c-375.49,94.68 -225.46,613.52 131.92,533.61 383.06,-85.64 230.39,-624.97 -131.92,-533.61z"/>
    <polygon class="fil1" points="1382.3,2465.74 1381.32,3393.12 1611.92,3378.31 1611.75,2443.91 "/>
    <path class="fil2" d="M2421.28 2617.38c-273.65,76.22 -136.43,428.8 102.99,360.1 83.66,-24.01 173.75,-112.59 140.19,-227.18 -25.1,-85.67 -122.65,-166.49 -243.18,-132.92z"/>
    <path class="fil1" d="M1350.26 2227.96l144.12 147.96c36.9,-12.71 55.64,-42.8 82.05,-69.19 28.82,-28.84 43.97,-44.67 76.03,-78.77 -14.03,-30.91 -114.87,-119.66 -143.37,-156.68 -28.84,13.98 -145.38,129.98 -158.83,156.68z"/>
   </g>
  </g>
 </g>
</svg>
