<?xml version="1.0" encoding="UTF-8"?>
<!DOCTYPE svg PUBLIC "-//W3C//DTD SVG 1.1//EN" "http://www.w3.org/Graphics/SVG/1.1/DTD/svg11.dtd">
<!-- Creator: CorelDRAW 2021.5 -->
<svg xmlns="http://www.w3.org/2000/svg" xml:space="preserve" width="46.487mm" height="38.5478mm" version="1.1" style="shape-rendering:geometricPrecision; text-rendering:geometricPrecision; image-rendering:optimizeQuality; fill-rule:evenodd; clip-rule:evenodd"
viewBox="0 0 4648.7 3854.78"
 xmlns:xlink="http://www.w3.org/1999/xlink"
 xmlns:xodm="http://www.corel.com/coreldraw/odm/2003">
 <defs>
  <style type="text/css">
   <![CDATA[
    .fil0 {fill:none}
    .fil2 {fill:#08A1DF;fill-rule:nonzero}
    .fil1 {fill:#0A1B70;fill-rule:nonzero}
   ]]>
  </style>
 </defs>
 <g id="_23Layer_x0020_1">
  <metadata id="CorelCorpID_0Corel-Layer"/>
  <rect class="fil0" x="-215.65" y="-612.6" width="5079.99" height="5079.99"/>
  <g id="_2237967116400">
   <rect class="fil0" x="1343.17" y="946.22" width="1962.35" height="1962.35"/>
   <g id="_1928115137296">
    <g>
     <polygon class="fil1" points="528.58,2698.95 679.16,2698.95 679.16,3260.76 934.3,3260.76 934.3,3404.36 528.58,3404.36 "/>
     <path class="fil1" d="M1405.22 3320.92c-46.5,60.49 -122.99,95.52 -198.26,95.52 -145.01,0 -260.8,-99.58 -260.8,-253.88 0,-154.28 115.79,-254.34 260.8,-254.34 135.28,0 220.18,100.06 220.18,254.34l0 46.34 -335.97 0c11.47,57.05 53.27,93.82 109.18,93.82 47.29,0 79.2,-24.68 103.39,-58.93l101.48 77.13zm-122.99 -213.65l0 0c1.24,-49.82 -36.62,-91.6 -88.7,-91.6 -63.86,0 -98.75,45.09 -102.36,91.6l191.06 0z"/>
     <path class="fil1" d="M1959.98 3404.36l-133.23 0 0 -63.94 -2.3 0c-21.91,34.87 -77.82,76.02 -143.66,76.02 -139.52,0 -231.1,-103.53 -231.1,-250.11 0,-134.64 81.22,-258.11 214.3,-258.11 60.01,0 116.25,16.97 148.93,63.62l2.21 0 0 -272.89 144.85 0 0 705.41zm-249.34 -364.5l0 0c-72.58,0 -115.79,49.51 -115.79,122.7 0,72.27 43.21,122.24 115.79,122.24 72.43,0 116.11,-49.97 116.11,-122.24 0,-73.19 -43.68,-122.7 -116.11,-122.7z"/>
     <path class="fil1" d="M2443.23 3320.92c-46.35,60.49 -122.7,95.52 -198.11,95.52 -145.09,0 -261.12,-99.58 -261.12,-253.88 0,-154.28 116.03,-254.34 261.12,-254.34 135.11,0 220.35,100.06 220.35,254.34l0 46.34 -336.45 0c11.7,57.05 53.41,93.82 109.18,93.82 47.45,0 79.19,-24.68 103.55,-58.93l101.48 77.13zm-122.7 -213.65l0 0c0.79,-49.82 -36.76,-91.6 -88.67,-91.6 -64.2,0 -98.76,45.09 -102.84,91.6l191.51 0z"/>
     <path class="fil1" d="M2771.2 3062.48c-21.45,-26.7 -49.89,-40.7 -84.45,-40.7 -24.03,0 -53.17,10.71 -53.17,39.76 0,71.63 244.43,11.01 244.43,195.3 0,123.79 -116,159.6 -216.24,159.6 -65.99,0 -138.57,-16.95 -184.93,-65.81l88.13 -100.71c27.21,34.23 59.02,52.8 102.46,52.8 32.92,0 65.82,-8.81 65.82,-34.58 0,-78.08 -244.77,-12.26 -244.77,-196.39 0,-113.73 98.89,-163.53 197.63,-163.53 61.13,0 130.1,16.02 173.45,63.62l-88.36 90.64z"/>
     <path class="fil1" d="M2904.17 2920.31l139.35 0 0 65.67 1.76 0c19.31,-38.01 66.66,-77.76 137.15,-77.76 65.97,0 120.33,27.79 145.31,86.57 33.54,-61.59 79.26,-86.57 148.46,-86.57 127.75,0 166.55,92.68 166.55,210.37l0 285.77 -144.85 0 0 -281.85c0,-44.63 -16.82,-82.65 -64.11,-82.65 -66.45,0 -87.75,48.54 -87.75,108.42l0 256.08 -145.24 0 0 -256.08c0,-35.66 2.19,-108.42 -64.56,-108.42 -75.18,0 -86.74,60.33 -86.74,123.49l0 241.01 -145.33 0 0 -484.05z"/>
     <path class="fil1" d="M3986.66 3343.23l-1.9 0c-31.88,52.32 -89.87,73.21 -148.95,73.21 -87.73,0 -167.14,-51.99 -167.14,-149.55 0,-167.48 197.32,-170.31 317.99,-170.31 0,-52.79 -42.58,-86.87 -92.7,-86.87 -47.28,0 -87.03,21.98 -118.15,57.65l-77.28 -81.38c53.41,-52 130.63,-77.76 206.97,-77.76 169.13,0 214.62,88.77 214.62,250.1l0 246.04 -133.46 0 0 -61.13zm-35.67 -151.12l0 0c-44.69,0 -142.96,4.08 -142.96,69.9 0,35.66 36.68,52.78 68.65,52.78 56.71,0 109.98,-30.64 109.98,-90.94l0 -31.74 -35.67 0z"/>
    </g>
    <path class="fil2" d="M2280.24 1695.84l578.27 345.12 43.51 -25.94 0 -53.1 -497.7 -286.6 186.46 -111.1 490.54 291.09 0 266.08 -222.81 132.35 -1067.74 -637.14 -312.08 187.08 0 370.07 311.23 185.17 354.43 -211.12 -88.1 -52.36 -266.33 158.3 -222.89 -132.35 0 -266.08 222.89 -131.84 1068.59 635.45 311.96 -185.17 0 -370.56 -490.42 -292.28 178.46 -105.42 489.7 291.08 0 583.58 -489.7 291.3 -535.23 -317.27 -533.36 317.27 -489.46 -291.3 0 -582.87 532.54 -321.52 1.51 -645.86 489.72 -291.57 489.47 291.57 0 583.34 -178.23 105.7 0 -582.91 -311.24 -185.16 -311.49 185.16 0 702 88.47 51.68 0 -694.69 223.02 -138.7 222.31 132.56 0 582.66 -178.57 105.89 0 -581.68 -43.74 -26.66 -45.53 29.24 1.54 697.51zm-538.78 264.21l0 0 0 57.08 48.46 29.25 48.27 -29.25 0 -57.08 -48.27 -29.02 -48.46 29.02z"/>
   </g>
  </g>
 </g>
</svg>
