<?xml version="1.0" encoding="UTF-8"?>
<!DOCTYPE svg PUBLIC "-//W3C//DTD SVG 1.1//EN" "http://www.w3.org/Graphics/SVG/1.1/DTD/svg11.dtd">
<!-- Creator: CorelDRAW 2021.5 -->
<svg xmlns="http://www.w3.org/2000/svg" xml:space="preserve" width="19.4732mm" height="19.4732mm" version="1.1" style="shape-rendering:geometricPrecision; text-rendering:geometricPrecision; image-rendering:optimizeQuality; fill-rule:evenodd; clip-rule:evenodd"
viewBox="0 0 1947.32 1947.32"
 xmlns:xlink="http://www.w3.org/1999/xlink"
 xmlns:xodm="http://www.corel.com/coreldraw/odm/2003">
 <defs>
  <style type="text/css">
   <![CDATA[
    .fil0 {fill:none}
    .fil1 {fill:#ED3237}
    .fil3 {fill:#FB0001}
    .fil2 {fill:#FEFEFE}
   ]]>
  </style>
 </defs>
 <g id="Capa_x0020_1">
  <metadata id="CorelCorpID_0Corel-Layer"/>
  <rect class="fil0" x="-0" y="-0.02" width="1947.33" height="1947.33"/>
  <g id="_798902704">
  </g>
  <g id="_798901520">
  </g>
  <g id="_798907824">
  </g>
  <g id="_798901872">
  </g>
  <g id="_798907536">
  </g>
  <g id="_798901840">
  </g>
  <g id="_798907696">
  </g>
  <g id="_798906608">
  </g>
  <g id="_798905328">
  </g>
  <g id="_798905904">
  </g>
  <g id="_798907568">
  </g>
  <g id="_798905040">
  </g>
  <g id="_798902544">
  </g>
  <g id="_798901488">
  </g>
  <g id="_798903440">
  </g>
  <g id="_1927716572480">
   <path class="fil1" d="M142.84 1236.36c39.79,30.39 100.89,99.54 140.31,139.19 70.75,71.15 405.85,414.73 436.33,428.61 37.85,-27.08 954.55,-951.8 1034.65,-1031.86 68.72,-68.7 60.14,-26.94 15.83,-250.85 -11.04,-55.8 -42.32,-246.24 -59.67,-283.67 -36.92,-14.2 -447,-95.41 -487.24,-94.61 -31.79,47.26 -274.34,274.17 -334.39,339.83 -93.66,102.4 -239.78,230.68 -337.3,337.3 -70.89,77.51 -390.27,378.85 -408.52,416.06z"/>
   <path class="fil2" d="M459.96 1255.44c16.68,38.55 192.39,201.01 231.42,236.4 17.57,-10.05 108.38,-98.21 121.29,-122.26 56.17,-104.65 -71.26,-146.71 -72.79,-147.71 -26.58,-17.46 -37.72,-131.96 -149.59,-88.54 -26.82,10.41 -113.12,101.03 -130.33,122.11z"/>
   <path class="fil2" d="M1227.7 489.5l226.89 233.87c33.41,-13.26 88.7,-73.34 103.38,-118.77 41.95,-129.84 -80.09,-251.08 -206.38,-213.86 -48.69,14.34 -107.56,69.92 -123.89,98.76z"/>
   <path class="fil2" d="M839.89 873.21l235.87 236.12 44.51 -42.47 -89.21 -93.38c9.14,-25.03 56.16,-72.86 84.18,-84.26 21.09,30.36 68,69.82 89.1,90.23 17.72,-10.86 34.13,-24.25 43.64,-49.69 -35.38,-25.26 -177.33,-177.18 -233.36,-226.96l-174.73 170.41z"/>
   <path class="fil2" d="M1162.09 551.32c31.31,32.99 113.91,102.99 127.94,136.8 -45.05,-3.62 -94.53,-16.6 -138.63,-25.47 -73.37,-14.76 -79.46,-30.42 -115.17,16.58 12.51,23.47 202.23,211.36 232.41,236.64l43.1 -39.07c-27.9,-48.31 -102.85,-92.94 -129.56,-140.57 153.89,12.7 211.98,77.59 258.42,7.44 -25.59,-31.21 -210.7,-218.39 -236.26,-232.94l-42.25 40.59z"/>
   <path class="fil2" d="M650.38 1065.72l234.35 237.24 44.52 -45.72 -187.71 -191.52c73.33,-124.52 180.19,-45.22 59.91,32.12 8.04,29.05 22.96,41.43 46.95,51.71 13.83,-13.46 19.53,-24.71 39.73,-40 23.69,5.98 95.93,52.44 119.46,66.02l47.92 -43.69 -135.49 -83.48c-4.3,-102.17 -76.6,-131.54 -135.83,-107.91 -28.42,11.35 -119.42,103.99 -133.81,125.23z"/>
   <path class="fil3" d="M1318.01 491.16c41.59,40.18 116.22,122.33 146.33,139.62 46.01,-36.34 52.29,-111.9 5.64,-153.99 -45.54,-41.08 -123.56,-38.81 -151.97,14.37z"/>
   <path class="fil3" d="M549.45 1255.44l141.5 146.3c19.52,-10.08 35.64,-28.08 51.8,-45.99 21.72,-24.06 20.83,-37.15 4.53,-64.03 -50.89,-11.06 -66.85,23.39 -88.59,49.83 -25.48,-9.2 -40.42,-24.77 -49.57,-43.95 30.16,-41.97 68.88,-42.33 46.65,-97.99 -52.77,-22.31 -79.58,25.47 -106.32,55.83z"/>
   <path class="fil3" d="M930.83 873.58l47.55 47.24c30.61,-19.39 63.63,-51.57 81.28,-79.97 -9.64,-17.41 -29.7,-38 -51.61,-48.2l-77.22 80.93z"/>
  </g>
 </g>
</svg>
